Coordinates
version=1
nRows=19
nColumns=34
inDegrees=yes

Units are S.I. units (second, meters, Newtons, ...)
If the header above contains a line with 'inDegrees', this indicates whether rotational values are in degrees (yes) or radians (no).

endheader
time	pelvis_tilt	pelvis_list	pelvis_rotation	pelvis_tx	pelvis_ty	pelvis_tz	hip_flexion_r	hip_adduction_r	hip_rotation_r	knee_angle_r	ankle_angle_r	subtalar_angle_r	mtp_angle_r	hip_flexion_l	hip_adduction_l	hip_rotation_l	knee_angle_l	ankle_angle_l	subtalar_angle_l	mtp_angle_l	lumbar_extension	lumbar_bending	lumbar_rotation	arm_flex_r	arm_add_r	arm_rot_r	elbow_flex_r	pro_sup_r	arm_flex_l	arm_add_l	arm_rot_l	elbow_flex_l	pro_sup_l
      3.40000000	    -22.70350242	      2.98412171	     -3.08872446	      0.88752723	      1.11922169	     -0.02668245	     35.78408038	     -5.91394815	     -4.91784427	     18.27529573	     -8.93936917	     -8.82502776	      0.00000000	     35.99291602	     -7.39930967	      2.24815232	     17.42412036	    -12.56126134	      3.12600782	      0.00000000	     -5.49110047	     -2.31650688	     -4.54560434	    -19.62096946	      1.74252492	    -29.27229609	     40.91849284	     94.23469263	     -7.26709185	    -10.31244859	      1.87911313	     30.57974615	     86.61632317
      3.41666670	    -22.59627143	      2.72929457	     -3.14553263	      0.88633079	      1.08465665	     -0.02500359	     35.98832713	     -5.79794548	     -5.01420794	     19.03877174	     -8.35283122	     -9.90436657	      0.00000000	     36.67265718	     -7.64579684	      2.19426358	     19.08974895	    -10.97102803	      3.38285590	      0.00000000	     -5.77262900	     -1.84267562	     -5.45938964	    -15.61943774	      0.84457916	    -23.82238360	     28.49015258	     95.59478349	     -6.35988271	    -11.59553371	      1.06995529	     31.67488563	     86.43296333
      3.43333330	    -22.00182864	      2.76223834	     -3.21084546	      0.89102053	      1.05296807	     -0.03163051	     35.67511897	     -6.26279511	     -5.33880821	     20.19332217	     -7.93904525	    -10.12363997	      0.00000000	     36.62651871	     -7.41957891	      1.71876811	     20.78323609	    -10.03568644	      3.30700630	      0.00000000	     -7.14605415	     -1.84432449	     -4.81807995	    -11.68080431	     -1.03880456	    -17.30112561	     23.33332110	     96.54579846	     -3.56252759	    -11.69933576	      0.24490672	     30.13024108	     86.35747817
      3.45000000	    -21.88368715	      2.30746998	     -2.85683761	      0.88643159	      1.01976864	     -0.02536664	     36.03635365	     -6.00473051	     -4.74081757	     21.97853206	     -6.66851532	    -10.46940926	      0.00000000	     37.61318843	     -7.80717074	      0.87990704	     23.20666795	     -9.18716296	      2.17744704	      0.00000000	     -9.01794416	     -1.84787621	     -3.36055998	     -7.95039134	     -2.26874575	    -13.25254875	     22.29884800	     96.90501660	      0.87969664	    -12.11739792	     -0.01537973	     29.11448309	     86.41934693
      3.46666670	    -21.27303519	      1.66945049	     -2.26015327	      0.89142500	      0.98920732	     -0.02725708	     35.87187346	     -5.63254898	     -3.66642498	     24.82527100	     -3.28615492	    -10.86297333	      0.00000000	     38.16208538	     -8.38009254	     -0.15028108	     26.57565222	     -6.48058638	      0.34822406	      0.00000000	    -11.32077883	     -1.71718496	     -3.48357294	     -3.97444912	     -3.90656194	     -5.95032346	     21.82094838	     97.30583699	      5.12757793	    -12.31645533	      1.06260784	     26.34126884	     86.75052066
      3.48333330	    -20.94404975	      1.22464083	     -2.17755862	      0.89233754	      0.94369708	     -0.02122834	     37.38272296	     -4.70991988	     -2.22390186	     30.17486534	      2.82767006	    -12.03471858	      0.00000000	     39.71463890	     -9.67469747	     -1.77460860	     31.64364842	     -1.00105475	     -1.97088029	      0.00000000	    -13.47371639	     -1.85249537	     -3.57468541	     -0.77710868	     -5.32386204	      0.12706683	     21.97804256	     96.71011610	      8.37518984	    -13.18329720	      1.96896662	     26.45991463	     86.76116204
      3.50000000	    -21.12123649	      0.93055125	     -2.22986783	      0.88512415	      0.91021152	     -0.01844147	     40.90111026	     -3.57730924	     -0.65070745	     37.69489857	     10.27502246	    -15.30667261	      0.00000000	     42.91604162	    -11.11513946	     -2.23788369	     38.47496042	      6.43811814	     -3.50827228	      0.00000000	    -15.99111153	     -2.39948964	     -3.23586603	      2.95151724	     -6.09718112	      1.16780664	     23.28477553	     96.45457796	     12.96801644	    -14.07496641	      1.55207325	     27.31365056	     86.54296980
      3.51666670	    -21.08355814	      0.62358510	     -2.25949719	      0.88323971	      0.88077297	     -0.02223230	     44.98982337	     -2.62663779	      0.55604131	     46.42884165	     18.09140381	    -17.20674005	      0.00000000	     46.85233063	    -12.45522790	     -2.07841416	     46.49073516	     14.22283665	     -3.97268502	      0.00000000	    -19.10273112	     -2.43374098	     -3.49079112	      7.06557846	     -6.61914075	      2.56199163	     25.10037650	     96.34865320	     17.56882329	    -14.59824561	      1.42272706	     27.79873694	     86.31917721
      3.53333330	    -20.93695531	      0.40091624	     -2.15102929	      0.87598142	      0.85116556	     -0.02592942	     50.01313792	     -2.25373307	      1.05927801	     56.29361178	     25.43447554	    -17.58880641	      0.00000000	     51.61754699	    -13.35055538	     -1.26697750	     55.50936077	     21.17101499	     -3.76442872	      0.00000000	    -22.67380695	     -2.15999844	     -3.68829210	     11.17359392	     -7.00439815	      4.14172413	     27.35836996	     96.21040185	     22.57584698	    -14.70550563	      1.52049049	     28.58557682	     86.00841006
      3.55000000	    -21.67002592	      0.45121055	     -2.33095407	      0.86411843	      0.81229679	     -0.03310557	     56.69632845	     -2.62315757	      1.32385286	     66.41208776	     31.58854392	    -16.47624296	      0.00000000	     57.97191392	    -13.63869738	      0.03156632	     64.94720753	     27.69385231	     -3.19610419	      0.00000000	    -24.74713203	     -1.67583716	     -3.28549982	     15.28053107	     -8.07111402	      5.57717178	     30.08519621	     96.14948959	     27.20764120	    -13.89444657	      1.48008353	     30.05532606	     85.71179803
      3.56666670	    -22.99859973	      0.78099773	     -2.35770899	      0.84775222	      0.78046297	     -0.03873838	     63.93682536	     -3.89491958	      1.48555863	     75.26300571	     36.21044774	    -13.77382683	      0.00000000	     65.13694441	    -13.14655509	      1.52951388	     73.69095331	     32.28894767	     -2.52659566	      0.00000000	    -26.01182777	     -1.21668290	     -2.55325588	     19.68747635	     -9.04555810	      6.85031197	     32.38341963	     96.20232408	     32.12663875	    -12.49867570	      1.65274344	     31.94245061	     85.56266459
      3.58333330	    -24.68380429	      1.51523121	     -2.59585001	      0.83782250	      0.75545419	     -0.05047799	     70.72244765	     -5.81162800	      1.94522784	     81.87627394	     39.08102092	    -10.32809401	      0.00000000	     71.47629428	    -12.22049366	      2.21136517	     80.38061544	     35.66990142	     -1.98214121	      0.00000000	    -26.35017324	     -0.66305794	     -2.29814113	     24.21173776	    -10.40746297	      9.36129091	     35.66170765	     96.33342497	     36.30865591	    -10.63189727	      2.04950173	     33.67419519	     85.38948626
      3.60000000	    -26.56664004	      2.16980727	     -2.56447868	      0.82606859	      0.73498069	     -0.04866526	     76.56051936	     -7.29892880	      2.35588164	     86.24198106	     40.51640392	     -7.64603376	      0.00000000	     76.89283447	    -11.65777148	      2.69646849	     84.69507534	     37.53939152	     -0.65201544	      0.00000000	    -26.00722965	     -0.58127038	     -2.03420295	     28.06400911	    -10.52191198	      9.99581631	     38.11836324	     96.32075489	     40.36285038	     -8.83672693	      2.19080706	     35.99806901	     85.33228349
      3.61666670	    -28.30177961	      2.72053263	     -2.48483763	      0.81825251	      0.71864093	     -0.04547619	     81.06640966	     -8.27093588	      2.54563710	     89.04627355	     40.94778984	     -5.47920023	      0.00000000	     81.01891044	    -11.42341500	      3.09113238	     87.32748195	     38.33779423	      0.51292058	      0.00000000	    -25.45037574	     -0.75743876	     -2.27598400	     31.21970691	     -9.78268810	     10.41952170	     41.68678447	     96.25860624	     43.55886668	     -7.49613647	      2.22662426	     38.17781087	     85.24935524
      3.63333330	    -29.88804290	      3.11329632	     -2.27234647	      0.81411052	      0.70398219	     -0.04320471	     84.41776874	     -8.75970643	      2.70058681	     90.83660113	     41.17806778	     -4.00987939	      0.00000000	     84.11734398	    -11.88596410	      2.95236158	     88.81164625	     38.43387822	      1.57673874	      0.00000000	    -24.85328235	     -1.12319668	     -2.21459560	     32.89180642	     -8.96786256	     10.10522460	     47.00847339	     96.05636172	     45.30641689	     -6.17763283	      1.94554241	     40.90209550	     85.01614704
      3.65000000	    -30.95990603	      3.53713977	     -2.00184219	      0.81318145	      0.69464626	     -0.04074597	     86.50718331	     -9.21009594	      2.75633567	     92.06110178	     41.67840126	     -2.33920771	      0.00000000	     86.08129929	    -12.66334249	      2.32101471	     89.73213551	     38.39906280	      3.16671732	      0.00000000	    -24.33637648	     -1.65353118	     -2.22508875	     34.36536939	     -7.63019982	      9.74169375	     51.82010202	     95.91087683	     46.45176636	     -5.03366167	      2.11407423	     43.21042324	     84.78349781
      3.66666670	    -31.47540893	      3.82248807	     -1.67258458	      0.81444666	      0.69653498	     -0.03580408	     86.88776810	     -9.37108595	      2.59960962	     92.09430538	     41.80282961	     -1.71778254	      0.00000000	     86.52095032	    -13.33499597	      1.51283604	     89.49604955	     37.76818853	      4.27020964	      0.00000000	    -24.53872247	     -2.22632305	     -2.33732180	     35.31714069	     -5.99454286	      8.89023772	     56.03527982	     95.73029688	     47.32846334	     -4.10791379	      2.81749078	     45.58236553	     84.45953190
      3.68333330	    -31.79678807	      4.00982474	     -1.63151048	      0.81713975	      0.69517171	     -0.03529671	     86.75544767	     -9.42530586	      2.34000303	     91.87134995	     42.19761213	     -1.20801202	      0.00000000	     86.64533483	    -13.98581179	      0.90764900	     89.39883272	     37.30807375	      5.09517449	      0.00000000	    -24.54815210	     -2.61746098	     -2.45492716	     35.91162744	     -4.71190731	      8.24317837	     59.17954193	     95.55126396	     47.47510699	     -3.21589070	      3.63779059	     47.73579548	     84.04748795
      3.70000000	    -31.58354237	      4.24638700	     -1.92447895	      0.82005851	      0.69878713	     -0.04028492	     86.14418948	     -9.54077729	      2.33175597	     91.65410804	     42.00412243	     -1.19158653	      0.00000000	     86.01950420	    -14.40206032	      0.22451409	     89.28461510	     36.70059434	      5.25310450	      0.00000000	    -24.93447774	     -2.94107500	     -2.49686762	     36.26091420	     -3.83051990	      7.69217675	     61.77930303	     95.31339302	     47.29918750	     -2.05917590	      4.61700005	     49.76170344	     83.52840264
